<mxfile host="app.diagrams.net" modified="2020-12-14T09:35:04.173Z" agent="5.0 (Windows NT 10.0; Win64; x64) AppleWebKit/537.36 (KHTML, like Gecko) Chrome/87.0.4280.88 Safari/537.36" etag="0x3Z7TIJI0-Gy_naeZ55" version="14.0.1" type="github">
  <diagram id="C5RBs43oDa-KdzZeNtuy" name="Page-1">
    <mxGraphModel dx="1052" dy="554" grid="0" gridSize="10" guides="1" tooltips="1" connect="1" arrows="1" fold="1" page="1" pageScale="1" pageWidth="3300" pageHeight="4681" math="0" shadow="0">
      <root>
        <mxCell id="WIyWlLk6GJQsqaUBKTNV-0" />
        <mxCell id="WIyWlLk6GJQsqaUBKTNV-1" parent="WIyWlLk6GJQsqaUBKTNV-0" />
        <mxCell id="WIyWlLk6GJQsqaUBKTNV-2" value="" style="rounded=0;html=1;jettySize=auto;orthogonalLoop=1;fontSize=11;endArrow=block;endFill=0;endSize=8;strokeWidth=1;shadow=0;labelBackgroundColor=none;edgeStyle=orthogonalEdgeStyle;" parent="WIyWlLk6GJQsqaUBKTNV-1" source="WIyWlLk6GJQsqaUBKTNV-3" target="WIyWlLk6GJQsqaUBKTNV-6" edge="1">
          <mxGeometry relative="1" as="geometry" />
        </mxCell>
        <mxCell id="WIyWlLk6GJQsqaUBKTNV-3" value="Lamp doesn&#39;t work" style="rounded=1;whiteSpace=wrap;html=1;fontSize=12;glass=0;strokeWidth=1;shadow=0;" parent="WIyWlLk6GJQsqaUBKTNV-1" vertex="1">
          <mxGeometry x="160" y="80" width="120" height="40" as="geometry" />
        </mxCell>
        <mxCell id="WIyWlLk6GJQsqaUBKTNV-4" value="Yes" style="rounded=0;html=1;jettySize=auto;orthogonalLoop=1;fontSize=11;endArrow=block;endFill=0;endSize=8;strokeWidth=1;shadow=0;labelBackgroundColor=none;edgeStyle=orthogonalEdgeStyle;" parent="WIyWlLk6GJQsqaUBKTNV-1" source="WIyWlLk6GJQsqaUBKTNV-6" target="WIyWlLk6GJQsqaUBKTNV-10" edge="1">
          <mxGeometry y="20" relative="1" as="geometry">
            <mxPoint as="offset" />
          </mxGeometry>
        </mxCell>
        <mxCell id="WIyWlLk6GJQsqaUBKTNV-5" value="No" style="edgeStyle=orthogonalEdgeStyle;rounded=0;html=1;jettySize=auto;orthogonalLoop=1;fontSize=11;endArrow=block;endFill=0;endSize=8;strokeWidth=1;shadow=0;labelBackgroundColor=none;" parent="WIyWlLk6GJQsqaUBKTNV-1" source="WIyWlLk6GJQsqaUBKTNV-6" target="WIyWlLk6GJQsqaUBKTNV-7" edge="1">
          <mxGeometry y="10" relative="1" as="geometry">
            <mxPoint as="offset" />
          </mxGeometry>
        </mxCell>
        <mxCell id="WIyWlLk6GJQsqaUBKTNV-6" value="Lamp&lt;br&gt;plugged in?" style="rhombus;whiteSpace=wrap;html=1;shadow=0;fontFamily=Helvetica;fontSize=12;align=center;strokeWidth=1;spacing=6;spacingTop=-4;" parent="WIyWlLk6GJQsqaUBKTNV-1" vertex="1">
          <mxGeometry x="170" y="170" width="100" height="80" as="geometry" />
        </mxCell>
        <mxCell id="WIyWlLk6GJQsqaUBKTNV-7" value="Plug in lamp" style="rounded=1;whiteSpace=wrap;html=1;fontSize=12;glass=0;strokeWidth=1;shadow=0;" parent="WIyWlLk6GJQsqaUBKTNV-1" vertex="1">
          <mxGeometry x="320" y="190" width="120" height="40" as="geometry" />
        </mxCell>
        <mxCell id="WIyWlLk6GJQsqaUBKTNV-8" value="No" style="rounded=0;html=1;jettySize=auto;orthogonalLoop=1;fontSize=11;endArrow=block;endFill=0;endSize=8;strokeWidth=1;shadow=0;labelBackgroundColor=none;edgeStyle=orthogonalEdgeStyle;" parent="WIyWlLk6GJQsqaUBKTNV-1" source="WIyWlLk6GJQsqaUBKTNV-10" target="WIyWlLk6GJQsqaUBKTNV-11" edge="1">
          <mxGeometry x="0.3333" y="20" relative="1" as="geometry">
            <mxPoint as="offset" />
          </mxGeometry>
        </mxCell>
        <mxCell id="WIyWlLk6GJQsqaUBKTNV-9" value="Yes" style="edgeStyle=orthogonalEdgeStyle;rounded=0;html=1;jettySize=auto;orthogonalLoop=1;fontSize=11;endArrow=block;endFill=0;endSize=8;strokeWidth=1;shadow=0;labelBackgroundColor=none;" parent="WIyWlLk6GJQsqaUBKTNV-1" source="WIyWlLk6GJQsqaUBKTNV-10" target="WIyWlLk6GJQsqaUBKTNV-12" edge="1">
          <mxGeometry y="10" relative="1" as="geometry">
            <mxPoint as="offset" />
          </mxGeometry>
        </mxCell>
        <mxCell id="WIyWlLk6GJQsqaUBKTNV-10" value="Bulb&lt;br&gt;burned out?" style="rhombus;whiteSpace=wrap;html=1;shadow=0;fontFamily=Helvetica;fontSize=12;align=center;strokeWidth=1;spacing=6;spacingTop=-4;" parent="WIyWlLk6GJQsqaUBKTNV-1" vertex="1">
          <mxGeometry x="170" y="290" width="100" height="80" as="geometry" />
        </mxCell>
        <mxCell id="WIyWlLk6GJQsqaUBKTNV-11" value="Repair Lamp" style="rounded=1;whiteSpace=wrap;html=1;fontSize=12;glass=0;strokeWidth=1;shadow=0;" parent="WIyWlLk6GJQsqaUBKTNV-1" vertex="1">
          <mxGeometry x="160" y="430" width="120" height="40" as="geometry" />
        </mxCell>
        <mxCell id="WIyWlLk6GJQsqaUBKTNV-12" value="Replace Bulb" style="rounded=1;whiteSpace=wrap;html=1;fontSize=12;glass=0;strokeWidth=1;shadow=0;" parent="WIyWlLk6GJQsqaUBKTNV-1" vertex="1">
          <mxGeometry x="320" y="310" width="120" height="40" as="geometry" />
        </mxCell>
        <mxCell id="MGiqjYbdZ9e2afPr6e-3-12" style="edgeStyle=orthogonalEdgeStyle;rounded=0;orthogonalLoop=1;jettySize=auto;html=1;entryX=0.499;entryY=-0.014;entryDx=0;entryDy=0;entryPerimeter=0;fontSize=14;" edge="1" parent="WIyWlLk6GJQsqaUBKTNV-1" source="MGiqjYbdZ9e2afPr6e-3-5" target="MGiqjYbdZ9e2afPr6e-3-6">
          <mxGeometry relative="1" as="geometry" />
        </mxCell>
        <mxCell id="MGiqjYbdZ9e2afPr6e-3-5" value="开始" style="rounded=1;whiteSpace=wrap;html=1;fontSize=14;" vertex="1" parent="WIyWlLk6GJQsqaUBKTNV-1">
          <mxGeometry x="240" y="530" width="100" height="40" as="geometry" />
        </mxCell>
        <mxCell id="MGiqjYbdZ9e2afPr6e-3-13" style="edgeStyle=orthogonalEdgeStyle;rounded=0;orthogonalLoop=1;jettySize=auto;html=1;entryX=0.489;entryY=-0.02;entryDx=0;entryDy=0;entryPerimeter=0;fontSize=14;" edge="1" parent="WIyWlLk6GJQsqaUBKTNV-1" source="MGiqjYbdZ9e2afPr6e-3-6" target="MGiqjYbdZ9e2afPr6e-3-7">
          <mxGeometry relative="1" as="geometry" />
        </mxCell>
        <mxCell id="MGiqjYbdZ9e2afPr6e-3-6" value="&lt;font style=&quot;font-size: 14px&quot;&gt;根据token得到用户ID和用户名&lt;/font&gt;" style="rounded=0;whiteSpace=wrap;html=1;perimeter=none;fontSize=14;" vertex="1" parent="WIyWlLk6GJQsqaUBKTNV-1">
          <mxGeometry x="205" y="620" width="170" height="40" as="geometry" />
        </mxCell>
        <mxCell id="MGiqjYbdZ9e2afPr6e-3-14" style="edgeStyle=orthogonalEdgeStyle;rounded=0;orthogonalLoop=1;jettySize=auto;html=1;entryX=0.5;entryY=0;entryDx=0;entryDy=0;fontSize=14;" edge="1" parent="WIyWlLk6GJQsqaUBKTNV-1" source="MGiqjYbdZ9e2afPr6e-3-7" target="MGiqjYbdZ9e2afPr6e-3-9">
          <mxGeometry relative="1" as="geometry" />
        </mxCell>
        <mxCell id="MGiqjYbdZ9e2afPr6e-3-7" value="远程调用得到根据用户名和用户ID得到用户所属的全部角色数据" style="rounded=0;whiteSpace=wrap;html=1;perimeter=none;fontSize=14;" vertex="1" parent="WIyWlLk6GJQsqaUBKTNV-1">
          <mxGeometry x="212.5" y="700" width="155" height="60" as="geometry" />
        </mxCell>
        <mxCell id="MGiqjYbdZ9e2afPr6e-3-15" style="edgeStyle=orthogonalEdgeStyle;rounded=0;orthogonalLoop=1;jettySize=auto;html=1;entryX=0.5;entryY=0;entryDx=0;entryDy=0;fontSize=14;" edge="1" parent="WIyWlLk6GJQsqaUBKTNV-1" source="MGiqjYbdZ9e2afPr6e-3-9" target="MGiqjYbdZ9e2afPr6e-3-11">
          <mxGeometry relative="1" as="geometry" />
        </mxCell>
        <mxCell id="MGiqjYbdZ9e2afPr6e-3-9" value="根据用户所属的不同角色创建不同的队列，并将队列通过不同的路由键绑定到同一个交换机" style="rounded=0;whiteSpace=wrap;html=1;fontSize=14;" vertex="1" parent="WIyWlLk6GJQsqaUBKTNV-1">
          <mxGeometry x="200" y="800" width="180" height="70" as="geometry" />
        </mxCell>
        <mxCell id="MGiqjYbdZ9e2afPr6e-3-10" value="结束" style="rounded=1;whiteSpace=wrap;html=1;fontSize=14;" vertex="1" parent="WIyWlLk6GJQsqaUBKTNV-1">
          <mxGeometry x="240" y="1010" width="100" height="45" as="geometry" />
        </mxCell>
        <mxCell id="MGiqjYbdZ9e2afPr6e-3-16" style="edgeStyle=orthogonalEdgeStyle;rounded=0;orthogonalLoop=1;jettySize=auto;html=1;entryX=0.5;entryY=0;entryDx=0;entryDy=0;fontSize=14;" edge="1" parent="WIyWlLk6GJQsqaUBKTNV-1" source="MGiqjYbdZ9e2afPr6e-3-11" target="MGiqjYbdZ9e2afPr6e-3-10">
          <mxGeometry relative="1" as="geometry" />
        </mxCell>
        <mxCell id="MGiqjYbdZ9e2afPr6e-3-11" value="返回全部创建的队列名数据" style="rounded=0;whiteSpace=wrap;html=1;fontSize=14;" vertex="1" parent="WIyWlLk6GJQsqaUBKTNV-1">
          <mxGeometry x="212.5" y="920" width="155" height="50" as="geometry" />
        </mxCell>
        <mxCell id="MGiqjYbdZ9e2afPr6e-3-22" style="edgeStyle=orthogonalEdgeStyle;rounded=0;orthogonalLoop=1;jettySize=auto;html=1;entryX=0.476;entryY=0.074;entryDx=0;entryDy=0;entryPerimeter=0;fontSize=14;" edge="1" parent="WIyWlLk6GJQsqaUBKTNV-1" source="MGiqjYbdZ9e2afPr6e-3-17" target="MGiqjYbdZ9e2afPr6e-3-18">
          <mxGeometry relative="1" as="geometry" />
        </mxCell>
        <mxCell id="MGiqjYbdZ9e2afPr6e-3-17" value="开始" style="rounded=1;whiteSpace=wrap;html=1;fontSize=14;" vertex="1" parent="WIyWlLk6GJQsqaUBKTNV-1">
          <mxGeometry x="710" y="540" width="100" height="39" as="geometry" />
        </mxCell>
        <mxCell id="MGiqjYbdZ9e2afPr6e-3-23" style="edgeStyle=orthogonalEdgeStyle;rounded=0;orthogonalLoop=1;jettySize=auto;html=1;entryX=0.5;entryY=0;entryDx=0;entryDy=0;fontSize=14;" edge="1" parent="WIyWlLk6GJQsqaUBKTNV-1" source="MGiqjYbdZ9e2afPr6e-3-18" target="MGiqjYbdZ9e2afPr6e-3-20">
          <mxGeometry relative="1" as="geometry" />
        </mxCell>
        <mxCell id="MGiqjYbdZ9e2afPr6e-3-18" value="根据任务单ID数据库查找得到任务单实体" style="rounded=0;whiteSpace=wrap;html=1;perimeter=none;fontSize=14;" vertex="1" parent="WIyWlLk6GJQsqaUBKTNV-1">
          <mxGeometry x="679" y="617" width="170" height="40" as="geometry" />
        </mxCell>
        <mxCell id="MGiqjYbdZ9e2afPr6e-3-33" style="edgeStyle=orthogonalEdgeStyle;rounded=0;orthogonalLoop=1;jettySize=auto;html=1;entryX=0.5;entryY=0;entryDx=0;entryDy=0;fontSize=14;" edge="1" parent="WIyWlLk6GJQsqaUBKTNV-1" source="MGiqjYbdZ9e2afPr6e-3-19" target="MGiqjYbdZ9e2afPr6e-3-26">
          <mxGeometry relative="1" as="geometry" />
        </mxCell>
        <mxCell id="MGiqjYbdZ9e2afPr6e-3-19" value="根据任务单实体得到其航班ID" style="rounded=0;whiteSpace=wrap;html=1;perimeter=none;fontSize=14;" vertex="1" parent="WIyWlLk6GJQsqaUBKTNV-1">
          <mxGeometry x="664" y="804" width="200" height="28" as="geometry" />
        </mxCell>
        <mxCell id="MGiqjYbdZ9e2afPr6e-3-25" style="edgeStyle=orthogonalEdgeStyle;rounded=0;orthogonalLoop=1;jettySize=auto;html=1;entryX=0;entryY=0.5;entryDx=0;entryDy=0;fontSize=14;" edge="1" parent="WIyWlLk6GJQsqaUBKTNV-1" source="MGiqjYbdZ9e2afPr6e-3-20" target="MGiqjYbdZ9e2afPr6e-3-21">
          <mxGeometry relative="1" as="geometry" />
        </mxCell>
        <mxCell id="MGiqjYbdZ9e2afPr6e-3-31" style="edgeStyle=orthogonalEdgeStyle;rounded=0;orthogonalLoop=1;jettySize=auto;html=1;fontSize=14;" edge="1" parent="WIyWlLk6GJQsqaUBKTNV-1" source="MGiqjYbdZ9e2afPr6e-3-20">
          <mxGeometry relative="1" as="geometry">
            <mxPoint x="764" y="804.4999389648438" as="targetPoint" />
          </mxGeometry>
        </mxCell>
        <mxCell id="MGiqjYbdZ9e2afPr6e-3-20" value="若任务单实体不存在" style="rhombus;whiteSpace=wrap;html=1;rounded=0;fontSize=14;" vertex="1" parent="WIyWlLk6GJQsqaUBKTNV-1">
          <mxGeometry x="693" y="684" width="142" height="83" as="geometry" />
        </mxCell>
        <mxCell id="MGiqjYbdZ9e2afPr6e-3-40" style="edgeStyle=orthogonalEdgeStyle;rounded=0;orthogonalLoop=1;jettySize=auto;html=1;fontSize=14;" edge="1" parent="WIyWlLk6GJQsqaUBKTNV-1" source="MGiqjYbdZ9e2afPr6e-3-21">
          <mxGeometry relative="1" as="geometry">
            <mxPoint x="993" y="831.928466796875" as="targetPoint" />
          </mxGeometry>
        </mxCell>
        <mxCell id="MGiqjYbdZ9e2afPr6e-3-21" value="抛出异常" style="rounded=0;whiteSpace=wrap;html=1;fontSize=14;" vertex="1" parent="WIyWlLk6GJQsqaUBKTNV-1">
          <mxGeometry x="933" y="617" width="120" height="60" as="geometry" />
        </mxCell>
        <mxCell id="MGiqjYbdZ9e2afPr6e-3-34" style="edgeStyle=orthogonalEdgeStyle;rounded=0;orthogonalLoop=1;jettySize=auto;html=1;entryX=0.521;entryY=0.025;entryDx=0;entryDy=0;entryPerimeter=0;fontSize=14;" edge="1" parent="WIyWlLk6GJQsqaUBKTNV-1" source="MGiqjYbdZ9e2afPr6e-3-26" target="MGiqjYbdZ9e2afPr6e-3-27">
          <mxGeometry relative="1" as="geometry" />
        </mxCell>
        <mxCell id="MGiqjYbdZ9e2afPr6e-3-26" value="根据航班ID查找得到全部服务引导ID不为空的数据，得到其服务引导ID" style="rounded=0;whiteSpace=wrap;html=1;fontSize=14;" vertex="1" parent="WIyWlLk6GJQsqaUBKTNV-1">
          <mxGeometry x="641" y="868" width="246" height="56" as="geometry" />
        </mxCell>
        <mxCell id="MGiqjYbdZ9e2afPr6e-3-35" style="edgeStyle=orthogonalEdgeStyle;rounded=0;orthogonalLoop=1;jettySize=auto;html=1;entryX=0.5;entryY=0;entryDx=0;entryDy=0;fontSize=14;" edge="1" parent="WIyWlLk6GJQsqaUBKTNV-1" source="MGiqjYbdZ9e2afPr6e-3-27" target="MGiqjYbdZ9e2afPr6e-3-28">
          <mxGeometry relative="1" as="geometry" />
        </mxCell>
        <mxCell id="MGiqjYbdZ9e2afPr6e-3-27" value="将此任务单实体的服务引导ID字段设置为上步骤获取的数据" style="rounded=0;whiteSpace=wrap;html=1;perimeter=none;fontSize=14;" vertex="1" parent="WIyWlLk6GJQsqaUBKTNV-1">
          <mxGeometry x="660" y="961" width="200" height="33" as="geometry" />
        </mxCell>
        <mxCell id="MGiqjYbdZ9e2afPr6e-3-36" style="edgeStyle=orthogonalEdgeStyle;rounded=0;orthogonalLoop=1;jettySize=auto;html=1;entryX=0;entryY=0.5;entryDx=0;entryDy=0;fontSize=14;" edge="1" parent="WIyWlLk6GJQsqaUBKTNV-1" source="MGiqjYbdZ9e2afPr6e-3-28" target="MGiqjYbdZ9e2afPr6e-3-29">
          <mxGeometry relative="1" as="geometry" />
        </mxCell>
        <mxCell id="MGiqjYbdZ9e2afPr6e-3-28" value="更新任务单实体到数据库" style="rounded=0;whiteSpace=wrap;html=1;fontSize=14;" vertex="1" parent="WIyWlLk6GJQsqaUBKTNV-1">
          <mxGeometry x="675" y="1026" width="170" height="37.5" as="geometry" />
        </mxCell>
        <mxCell id="MGiqjYbdZ9e2afPr6e-3-37" style="edgeStyle=orthogonalEdgeStyle;rounded=0;orthogonalLoop=1;jettySize=auto;html=1;fontSize=14;" edge="1" parent="WIyWlLk6GJQsqaUBKTNV-1" source="MGiqjYbdZ9e2afPr6e-3-29">
          <mxGeometry relative="1" as="geometry">
            <mxPoint x="993" y="873.0713500976562" as="targetPoint" />
          </mxGeometry>
        </mxCell>
        <mxCell id="MGiqjYbdZ9e2afPr6e-3-29" value="返回服务引导ID数据" style="rounded=0;whiteSpace=wrap;html=1;fontSize=14;" vertex="1" parent="WIyWlLk6GJQsqaUBKTNV-1">
          <mxGeometry x="915" y="973" width="156" height="47" as="geometry" />
        </mxCell>
        <mxCell id="MGiqjYbdZ9e2afPr6e-3-30" value="结束" style="rounded=1;whiteSpace=wrap;html=1;fontSize=14;" vertex="1" parent="WIyWlLk6GJQsqaUBKTNV-1">
          <mxGeometry x="946" y="832" width="86" height="33" as="geometry" />
        </mxCell>
        <mxCell id="MGiqjYbdZ9e2afPr6e-3-42" style="edgeStyle=orthogonalEdgeStyle;rounded=0;orthogonalLoop=1;jettySize=auto;html=1;fontSize=14;" edge="1" parent="WIyWlLk6GJQsqaUBKTNV-1" source="MGiqjYbdZ9e2afPr6e-3-41" target="MGiqjYbdZ9e2afPr6e-3-43">
          <mxGeometry relative="1" as="geometry">
            <mxPoint x="330" y="1581.3738708496094" as="targetPoint" />
          </mxGeometry>
        </mxCell>
        <mxCell id="MGiqjYbdZ9e2afPr6e-3-54" style="edgeStyle=orthogonalEdgeStyle;rounded=0;orthogonalLoop=1;jettySize=auto;html=1;entryX=0;entryY=0.5;entryDx=0;entryDy=0;fontSize=14;" edge="1" parent="WIyWlLk6GJQsqaUBKTNV-1" source="MGiqjYbdZ9e2afPr6e-3-41" target="MGiqjYbdZ9e2afPr6e-3-53">
          <mxGeometry relative="1" as="geometry" />
        </mxCell>
        <mxCell id="MGiqjYbdZ9e2afPr6e-3-62" style="edgeStyle=orthogonalEdgeStyle;rounded=0;orthogonalLoop=1;jettySize=auto;html=1;entryX=0.5;entryY=1;entryDx=0;entryDy=0;startArrow=none;startFill=0;endArrow=classic;endFill=1;fontSize=14;" edge="1" parent="WIyWlLk6GJQsqaUBKTNV-1" source="MGiqjYbdZ9e2afPr6e-3-41" target="MGiqjYbdZ9e2afPr6e-3-61">
          <mxGeometry relative="1" as="geometry" />
        </mxCell>
        <mxCell id="MGiqjYbdZ9e2afPr6e-3-66" style="edgeStyle=orthogonalEdgeStyle;rounded=0;orthogonalLoop=1;jettySize=auto;html=1;entryX=0.5;entryY=0;entryDx=0;entryDy=0;startArrow=none;startFill=0;endArrow=classic;endFill=1;fontSize=14;" edge="1" parent="WIyWlLk6GJQsqaUBKTNV-1" source="MGiqjYbdZ9e2afPr6e-3-41" target="MGiqjYbdZ9e2afPr6e-3-65">
          <mxGeometry relative="1" as="geometry" />
        </mxCell>
        <mxCell id="MGiqjYbdZ9e2afPr6e-3-41" value="内场客服" style="rounded=0;whiteSpace=wrap;html=1;fontSize=14;" vertex="1" parent="WIyWlLk6GJQsqaUBKTNV-1">
          <mxGeometry x="270" y="1430" width="120" height="60" as="geometry" />
        </mxCell>
        <mxCell id="MGiqjYbdZ9e2afPr6e-3-47" style="edgeStyle=orthogonalEdgeStyle;rounded=0;orthogonalLoop=1;jettySize=auto;html=1;fontSize=14;" edge="1" parent="WIyWlLk6GJQsqaUBKTNV-1" source="MGiqjYbdZ9e2afPr6e-3-43" target="MGiqjYbdZ9e2afPr6e-3-48">
          <mxGeometry relative="1" as="geometry">
            <mxPoint x="330" y="1664.4662780761719" as="targetPoint" />
          </mxGeometry>
        </mxCell>
        <mxCell id="MGiqjYbdZ9e2afPr6e-3-43" value="执行操作&lt;br style=&quot;font-size: 14px;&quot;&gt;（操作类型为内场叫车）" style="rounded=0;whiteSpace=wrap;html=1;fontSize=14;" vertex="1" parent="WIyWlLk6GJQsqaUBKTNV-1">
          <mxGeometry x="254.75" y="1549" width="150.5" height="57" as="geometry" />
        </mxCell>
        <mxCell id="MGiqjYbdZ9e2afPr6e-3-45" style="edgeStyle=orthogonalEdgeStyle;rounded=0;orthogonalLoop=1;jettySize=auto;html=1;fontSize=14;" edge="1" parent="WIyWlLk6GJQsqaUBKTNV-1" source="MGiqjYbdZ9e2afPr6e-3-44" target="MGiqjYbdZ9e2afPr6e-3-46">
          <mxGeometry relative="1" as="geometry">
            <mxPoint x="962" y="1490.886474609375" as="targetPoint" />
          </mxGeometry>
        </mxCell>
        <mxCell id="MGiqjYbdZ9e2afPr6e-3-44" value="摆渡车司机接受任务，改变任务不同状态" style="rounded=0;whiteSpace=wrap;html=1;fontSize=14;" vertex="1" parent="WIyWlLk6GJQsqaUBKTNV-1">
          <mxGeometry x="902" y="1359" width="120" height="60" as="geometry" />
        </mxCell>
        <mxCell id="MGiqjYbdZ9e2afPr6e-3-46" value="摆渡车状态更新" style="rounded=0;whiteSpace=wrap;html=1;fontSize=14;" vertex="1" parent="WIyWlLk6GJQsqaUBKTNV-1">
          <mxGeometry x="902" y="1460.886474609375" width="120" height="60" as="geometry" />
        </mxCell>
        <mxCell id="MGiqjYbdZ9e2afPr6e-3-49" style="edgeStyle=orthogonalEdgeStyle;rounded=0;orthogonalLoop=1;jettySize=auto;html=1;fontSize=14;" edge="1" parent="WIyWlLk6GJQsqaUBKTNV-1" source="MGiqjYbdZ9e2afPr6e-3-48">
          <mxGeometry relative="1" as="geometry">
            <mxPoint x="330" y="1741.10498046875" as="targetPoint" />
          </mxGeometry>
        </mxCell>
        <mxCell id="MGiqjYbdZ9e2afPr6e-3-48" value="特车调度接受消息，派发任务" style="rounded=0;whiteSpace=wrap;html=1;fontSize=14;" vertex="1" parent="WIyWlLk6GJQsqaUBKTNV-1">
          <mxGeometry x="270" y="1647.9962780761718" width="120" height="60" as="geometry" />
        </mxCell>
        <mxCell id="MGiqjYbdZ9e2afPr6e-3-50" value="执行操作&lt;br style=&quot;font-size: 14px;&quot;&gt;（操作类型为特车调度）" style="rounded=0;whiteSpace=wrap;html=1;fontSize=14;" vertex="1" parent="WIyWlLk6GJQsqaUBKTNV-1">
          <mxGeometry x="263" y="1741" width="143" height="58.63" as="geometry" />
        </mxCell>
        <mxCell id="MGiqjYbdZ9e2afPr6e-3-52" value="上传图片&lt;br style=&quot;font-size: 14px&quot;&gt;（操作类型为机下核对拍照）" style="rounded=0;whiteSpace=wrap;html=1;fontSize=14;" vertex="1" parent="WIyWlLk6GJQsqaUBKTNV-1">
          <mxGeometry x="634" y="1515" width="120" height="60" as="geometry" />
        </mxCell>
        <mxCell id="MGiqjYbdZ9e2afPr6e-3-53" value="上传图片&lt;br style=&quot;font-size: 14px&quot;&gt;（操作类型为遗漏内场确认）" style="rounded=0;whiteSpace=wrap;html=1;fontSize=14;" vertex="1" parent="WIyWlLk6GJQsqaUBKTNV-1">
          <mxGeometry x="457" y="1377" width="120" height="60" as="geometry" />
        </mxCell>
        <mxCell id="MGiqjYbdZ9e2afPr6e-3-58" style="edgeStyle=orthogonalEdgeStyle;rounded=0;orthogonalLoop=1;jettySize=auto;html=1;entryX=0.5;entryY=1;entryDx=0;entryDy=0;fontSize=14;" edge="1" parent="WIyWlLk6GJQsqaUBKTNV-1" source="MGiqjYbdZ9e2afPr6e-3-55" target="MGiqjYbdZ9e2afPr6e-3-52">
          <mxGeometry relative="1" as="geometry" />
        </mxCell>
        <mxCell id="MGiqjYbdZ9e2afPr6e-3-64" style="edgeStyle=orthogonalEdgeStyle;rounded=0;orthogonalLoop=1;jettySize=auto;html=1;entryX=0.5;entryY=0;entryDx=0;entryDy=0;startArrow=none;startFill=0;endArrow=classic;endFill=1;fontSize=14;" edge="1" parent="WIyWlLk6GJQsqaUBKTNV-1" source="MGiqjYbdZ9e2afPr6e-3-55" target="MGiqjYbdZ9e2afPr6e-3-63">
          <mxGeometry relative="1" as="geometry" />
        </mxCell>
        <mxCell id="MGiqjYbdZ9e2afPr6e-3-68" style="edgeStyle=orthogonalEdgeStyle;rounded=0;orthogonalLoop=1;jettySize=auto;html=1;startArrow=none;startFill=0;endArrow=classic;endFill=1;fontSize=14;" edge="1" parent="WIyWlLk6GJQsqaUBKTNV-1" source="MGiqjYbdZ9e2afPr6e-3-55" target="MGiqjYbdZ9e2afPr6e-3-67">
          <mxGeometry relative="1" as="geometry" />
        </mxCell>
        <mxCell id="MGiqjYbdZ9e2afPr6e-3-55" value="外场客服" style="rounded=0;whiteSpace=wrap;html=1;fontSize=14;" vertex="1" parent="WIyWlLk6GJQsqaUBKTNV-1">
          <mxGeometry x="634" y="1632.89" width="120" height="60" as="geometry" />
        </mxCell>
        <mxCell id="MGiqjYbdZ9e2afPr6e-3-60" value="" style="edgeStyle=orthogonalEdgeStyle;rounded=0;orthogonalLoop=1;jettySize=auto;html=1;fontSize=14;endArrow=none;endFill=0;startArrow=classic;startFill=1;" edge="1" parent="WIyWlLk6GJQsqaUBKTNV-1" source="MGiqjYbdZ9e2afPr6e-3-59" target="MGiqjYbdZ9e2afPr6e-3-55">
          <mxGeometry relative="1" as="geometry" />
        </mxCell>
        <mxCell id="MGiqjYbdZ9e2afPr6e-3-59" value="向摆渡车辆发送消息&lt;br&gt;（操作类型为开车门）" style="rounded=0;whiteSpace=wrap;html=1;fontSize=14;" vertex="1" parent="WIyWlLk6GJQsqaUBKTNV-1">
          <mxGeometry x="440" y="1629.39" width="143" height="67" as="geometry" />
        </mxCell>
        <mxCell id="MGiqjYbdZ9e2afPr6e-3-61" value="向摆渡车辆发送消息&lt;br&gt;（操作类型为内场客服派车）" style="rounded=0;whiteSpace=wrap;html=1;fontSize=14;" vertex="1" parent="WIyWlLk6GJQsqaUBKTNV-1">
          <mxGeometry x="226.25" y="1314" width="207.5" height="63" as="geometry" />
        </mxCell>
        <mxCell id="MGiqjYbdZ9e2afPr6e-3-63" value="遗漏步骤发送消息&lt;br&gt;（操作类型为遗漏外场确认）" style="rounded=0;whiteSpace=wrap;html=1;fontSize=14;" vertex="1" parent="WIyWlLk6GJQsqaUBKTNV-1">
          <mxGeometry x="595.25" y="1742.23" width="197.5" height="56.18" as="geometry" />
        </mxCell>
        <mxCell id="MGiqjYbdZ9e2afPr6e-3-65" value="遗漏步骤发送消息&lt;br&gt;（操作类型为遗漏外场确认）" style="rounded=0;whiteSpace=wrap;html=1;fontSize=14;" vertex="1" parent="WIyWlLk6GJQsqaUBKTNV-1">
          <mxGeometry x="418.25" y="1488" width="197.5" height="56.18" as="geometry" />
        </mxCell>
        <mxCell id="MGiqjYbdZ9e2afPr6e-3-67" value="得到图片记录&lt;br&gt;（数据为内场客服遗漏确认上传的图片）" style="rounded=0;whiteSpace=wrap;html=1;fontSize=14;" vertex="1" parent="WIyWlLk6GJQsqaUBKTNV-1">
          <mxGeometry x="817" y="1629.39" width="143" height="67" as="geometry" />
        </mxCell>
        <mxCell id="MGiqjYbdZ9e2afPr6e-3-70" style="edgeStyle=orthogonalEdgeStyle;rounded=0;orthogonalLoop=1;jettySize=auto;html=1;entryX=0;entryY=0.5;entryDx=0;entryDy=0;startArrow=none;startFill=0;endArrow=classic;endFill=1;fontSize=14;" edge="1" parent="WIyWlLk6GJQsqaUBKTNV-1" source="MGiqjYbdZ9e2afPr6e-3-69" target="MGiqjYbdZ9e2afPr6e-3-44">
          <mxGeometry relative="1" as="geometry" />
        </mxCell>
        <mxCell id="MGiqjYbdZ9e2afPr6e-3-69" value="摆渡车司机" style="rounded=0;whiteSpace=wrap;html=1;fontSize=14;" vertex="1" parent="WIyWlLk6GJQsqaUBKTNV-1">
          <mxGeometry x="715" y="1359" width="120" height="60" as="geometry" />
        </mxCell>
        <mxCell id="MGiqjYbdZ9e2afPr6e-3-71" value="所有角色共有" style="rounded=0;whiteSpace=wrap;html=1;fontSize=14;" vertex="1" parent="WIyWlLk6GJQsqaUBKTNV-1">
          <mxGeometry x="396" y="1962" width="120" height="60" as="geometry" />
        </mxCell>
      </root>
    </mxGraphModel>
  </diagram>
</mxfile>
